<?xml version="1.0" standalone="no"?><!DOCTYPE svg PUBLIC "-//W3C//DTD SVG 1.1//EN" "http://www.w3.org/Graphics/SVG/1.1/DTD/svg11.dtd"><svg t="1667286596579" class="icon" viewBox="0 0 3198 1024" version="1.1" xmlns="http://www.w3.org/2000/svg" p-id="927" data-spm-anchor-id="a313x.7781069.0.i0" xmlns:xlink="http://www.w3.org/1999/xlink" width="624.609375" height="200"><path d="M1485.55123661 16.44609563v55.74224315h18.65536903V44.31721721H1550.73309626V118.67751873c0 37.3107381-18.65536903 46.45186929-55.70493248 46.45186929h-9.29037385v111.52179695H1550.73309626v102.19411243h-65.18185965v139.39291684H1550.73309626v102.23142311h-93.05298124c-55.70493248 0-83.57605406-37.3107381-83.57605405-92.94104925V165.12938802h-176.47979263v74.32299084h74.28568022c55.74224315 0 65.03261699 37.3107381 65.03261698 83.6506754v297.36658309h-102.15680178V341.68380198h-37.31073807v278.78583537h-176.47979264c-55.70493248 0-74.28568018-37.3107381-74.28567852-92.94104925V118.67751873h102.15680009v399.56069551h37.31073976V72.18833878h287.92696659V16.44609563z" fill="#08579E" p-id="928"></path><path d="M946.8587972 16.44609563h102.15680177v74.32299086h-102.15680177z" fill="#CC2723" p-id="929"></path><path d="M2990.18137918 518.23821424v-492.50174476H2414.32744435V611.1792635h482.9875086c64.99530634 0 92.86642791-27.90843222 92.86642623-92.94104926zM2516.52155679 109.38714487h371.50302229V508.94784039a19.99855631 19.99855631 0 0 1-18.65536903 18.65537074h-352.84765326z m195.02322969 55.74224315h-176.47979264v74.32299084h176.47979264v176.55441397a19.99855631 19.99855631 0 0 1-18.65536906 18.65536904h-27.8338109V508.94784039h92.86642789c37.3107381 0 55.74224315-27.87112157 55.74224316-55.74224147V239.45237886h55.70493248V165.12938802h-55.63031116v-37.3107381h-102.19411241z m-111.44717565 102.23142309l-27.87112158 139.35560786c0 9.29037386-9.29037386 9.29037386-18.65536905 9.29037386h-9.29037383v83.65067371h46.45186929a69.84570273 69.84570273 0 0 0 65.032617-46.45186762l27.8338109-185.84478781zM1708.44558786 397.42604513V165.12938802h-27.83381092V90.76908649h18.65536903c9.29037386 0 9.29037386 0 18.65536905-18.65536904L1727.02633556 16.44609563h102.1568001l-9.25306319 27.87112158H1931.30262674V16.44609563h111.44717564v27.87112158h232.18472512V118.67751873h-232.11010379v27.87112156h232.18472512V211.58125731h-232.18472512v18.65536905h232.18472512v64.99530633h-232.18472512v27.87112157h232.18472512v74.32299087h-232.18472512v18.65536902h241.47509897v83.65067539h-241.47509897v120.81216915H1931.30262674v-120.88679215h-250.6908498v-83.65067371H1931.30262674v-18.65537072z m37.31073808 120.81216911c-9.29037386 9.29037386-9.29037386 18.65536903-27.87112157 18.65537073h-27.87112159v83.65067372h83.46412039c27.87112157 0 46.45186929-18.65536903 55.70493249-46.48917998l27.87112158-55.74224145z m473.84637572 0c9.29037386 18.65536903 9.29037386 18.65536903 27.87112159 18.65537073h27.83381091v83.65067372h-83.57605407c-27.87112157 0-46.45186929-18.65536903-55.74224315-46.48917998l-27.8338109-55.74224145zM1931.30262674 118.67751873h-111.37255427v27.87112156H1931.30262674z m0 92.90373858h-111.37255427v18.65536905H1931.30262674z m0 83.65067538h-111.37255427v27.87112157H1931.30262674zM315.2626192 16.44609563v74.32299086h130.02792337V16.44609563h102.19411073v111.52179696c0 46.45186929-18.65536903 55.74224315-55.74224147 55.74224312H203.81544357V16.44609563z m371.5403313 0v37.3107381h130.02792335v102.23142307h-130.02792335v37.31073809h130.02792335v92.64256393h-148.60867107c-65.03261699 0-83.61336473-27.90843222-83.61336471-83.65067537V16.44609563z m0 362.39920177h130.02792335v102.23142309h-130.02792335V527.60321113h130.02792335v92.94104756h-148.60867107c-65.03261699 0-83.61336473-27.87112157-83.61336471-92.94104756V323.10305426h102.19411243z m-371.5403313 102.23142309h130.02792337v-37.31073975H315.2626192z m130.02792337 102.19411077H315.2626192v37.31073976H203.81544357V211.58125731h343.66920973v408.88838004H445.29054257zM315.2626192 350.97417584h130.02792337v-37.31073809H315.2626192zM281.12329261 731.17059803A519.06699141 519.06699141 0 0 1 312.01658472 775.71962009q-7.46214796 5.11157108-13.54379801 9.0291992c-2.57444086-4.51459877-5.26081373-9.1411312-8.17105223-13.84228496q-47.94429923 3.50720915-76.78549974 6.380137L207.32265274 760.79532417A68.31596217 68.31596217 0 0 0 226.20188578 743.14734474a327.36441755 327.36441755 0 0 0 21.19250091-31.60219472l15.52126652 5.70854337a542.8712422 542.8712422 0 0 1-34.3258799 44.51170971q29.43817284-1.8282259 53.46628926-3.73107313-6.23089269-9.36499519-13.24531264-19.14040934zM233.6640337 904.81477513H218.32932051v-115.66328908h79.65842593V882.05522462c0 14.10345963-6.52937967 21.19249924-19.62544801 21.19249925-5.74585406 0-13.13338067 0.18655332-22.16257821 0.18655332-0.67159364-4.06687077-1.64167258-9.02919921-2.94754919-14.9242959q12.38716572 1.00738962 19.81200299 1.00739129c6.41744769 0 9.62616983-3.3579665 9.62616985-10.03658883v-16.45403649H233.6640337z m49.06362084-103.20150204H233.6640337v18.84192237h49.02631017zM233.6640337 851.23655388h49.02631017v-19.02847569H233.6640337z m83.38950076-41.04181125h15.29740253v32.38572035a430.11819165 430.11819165 0 0 0 58.27937335-27.27414927l8.84264422 13.54379796a577.08519012 577.08519012 0 0 1-67.15932823 29.84859013v16.97638583c0 8.24567358 3.20872383 12.34985505 9.62616985 12.34985502h28.84120051a10.44700614 10.44700614 0 0 0 11.56632941-9.6261715q1.4178086-8.61878022 2.35057689-25.70709803c4.99963908 1.97746855 10.07389949 3.73107314 15.29740254 5.52199005-1.04470028 11.49170809-2.1267129 20.18510963-3.32065583 26.11751534-1.67898322 11.52901873-9.88734617 17.2748711-24.51315509 17.2748728h-32.75882865q-22.3864422 0-22.38644218-22.94610383z m0.4104173-95.73935409h15.29740422v33.57966328a425.86476752 425.86476752 0 0 0 53.54090892-25.81903002l8.84264423 13.543798q-30.63211575 15.52126655-62.38355315 28.35616019v11.19322278q0 13.13338067 10.3723848 13.17068965H367.98269184q12.38716572 0 13.95421696-10.22314215 1.34318725-8.39491623 2.3505752-24.51315508c4.96232842 1.97746855 10.07389949 3.73107314 15.29740422 5.70854338q-1.56705125 15.67051088-3.32065584 25.48323403-2.98485985 17.05100714-26.49062531 17.08831779h-28.61733654q-23.72962946 0-23.72962944-23.54307613zM437.38066495 758.03432997h63.42825508q0.55966164-21.52829523 0.78352565-43.95204975h17.05100711q-0.41041731 20.81939262-0.97007894 43.95204975h90.2173657q-2.38788755 76.74818906-4.51459877 108.5369371-2.57444086 33.57966495-36.11679515 34.13932662c-10.70818245 0-23.69231878-0.26117465-38.84047867-0.82083631-0.52235098-5.07426042-1.52974059-11.1932211-2.9475492-18.65536905h0.59697231c16.9763858 1.56705125 30.22169845 2.27595555 39.62400431 2.16402188q19.02847737-0.37310666 21.00594593-21.00594425 2.35057686-35.10940554 3.50720915-88.27720781H517.41219919q-1.75360459 51.07840005-16.2674815 76.89743174-15.52126655 28.65464719-60.44339692 55.14527082c-3.73107314-4.70115377-7.46214796-9.70079116-11.75288273-14.92429422q42.53424114-23.95349344 55.96610714-48.28009519 13.87959396-22.05064621 15.52126823-68.83831315H437.38066495zM721.9496667 716.24630379l-2.5371302 4.14149212q24.88626173 22.94610382 47.8696762 46.48917993l-10.78280209 12.16330005q-21.0432566-23.31921214-44.77288604-46.11607332a291.62073073 291.62073073 0 0 1-39.66131498 50.81722541h80.66581554c-0.78352562 18.20764108-1.45511925 30.93060274-1.97746855 38.28081872q-0.93276829 29.21430883-26.67717866 29.21430718-10.40969546 0-25.52054467-0.55965998c-0.78352562-5.78316469-1.67898322-11.1932211-2.72368354-15.70782153a172.41292185 172.41292185 0 0 0 25.11012736 2.35057688q14.10345963 0.22386399 14.92429425-17.87184343c0.37310666-6.26820335 0.78352562-13.58110863 1.15663395-21.97602486H685.12396726v78.68834698q0 11.1932211 11.75288272 11.19322108h32.19916702q15.52126655 0 17.46142613-10.22314214a150.88462493 150.88462493 0 0 0 3.50720914-23.54307613c5.11157108 2.08940055 10.26045281 3.99224947 15.52126653 5.70854338a215.65606729 215.65606729 0 0 1-4.92501607 23.91618276c-3.2460345 12.16330004-12.49909767 18.24495173-27.6472576 18.24495174H694.07854513q-24.14004844 0-24.14004844-23.91618444v-91.44861933c-4.17880279 3.95493882-8.28298425 7.46214796-12.34985335 10.82011445q-5.8950967-9.62616983-9.02919919-14.14077028a207.89543403 207.89543403 0 0 0 55.21989215-66.52504524z m93.98574951 1.38049624h15.70782155v163.04792666q0 23.95349344-23.76694177 24.14004844h-30.78135844a144.3925576 144.3925576 0 0 0-3.1341025-17.87184343c13.84228329 1.19394293 23.58038679 1.75360459 29.21430882 1.75360459q12.76027236 0 12.76027234-12.53640835zM790.04176321 855.93770763h-15.11084921v-120.88679214h15.11084921zM950.403317 887.16679571l48.87706751 0.7835256 65.33110231-1.56705124c-1.45511925 4.29073478-3.28334517 9.47692718-5.48467772 15.48395588l-64.95799566 0.41041897-46.71304394-1.1939446q-33.35579929-0.37310666-46.67573494-22.94610383a294.15786094 294.15786094 0 0 0-23.54307614 26.117517l-8.05911857-16.2674815q17.34949411-16.78983247 25.11012737-24.02811645v-66.04000661h-23.31921215v-14.36463427h38.4300597v83.87453938q12.08867871 19.55082666 41.00450223 19.73738167z m-56.67501142-169.53999568q9.96196749 12.20061069 27.46070258 37.0868741l-13.95421527 9.81272485q-15.89437486-24.88626173-26.117517-38.46737205z m31.97530303 64.36102338h62.1969998V755.19871443h-33.35579927a205.43292515 205.43292515 0 0 1-11.37977609 22.94610385 96.00053042 96.00053042 0 0 0-13.54379799-7.05172897 179.61389347 179.61389347 0 0 0 21.37905424-51.60075269l14.92429423 3.32065584q-2.98485985 9.99927815-6.19358201 19.02847733h28.16960689V714.15690155h15.29740255v27.87112156h50.22025478V755.19871443h-50.22025478v26.67717698h59.69718196v13.35724466h-137.19158431z m17.23756045 30.22169847h99.88084619v62.9805271h-15.11084921V867.13092869h-69.65914776v8.05912029h-15.11084922z m84.76999698 13.35724465h-69.65914776v28.2442282h69.65914776zM1093.71386198 792.99449119h189.94896928v14.10345959h-30.22169845v74.62147616q0 24.58777642-26.30407032 24.55046577-10.9693571 0-28.24422821-0.4104173-1.00738962-7.05172896-3.13410249-15.89437487 14.32732361 1.4178086 26.3040703 1.56705128 16.45403482 0.59697232 16.45403649-12.9468257v-71.48737534h-144.8029766z m8.24567358-18.28226075q55.14527085-6.41744769 71.41275403-25.48323401h-67.6816792v-14.14077028h75.14382716a73.91257188 73.91257188 0 0 0 2.76099418-19.9985563h14.70043025a95.29162613 95.29162613 0 0 1-2.16402189 19.9985563h76.7481874v14.14077028H1191.05757968c-0.52235098 0.89545763-1.3058766 2.16402354-2.38788754 3.73107315q39.43745098 10.9693571 76.15121676 22.75955051l-6.86517565 14.1034596q-39.99711094-14.92429591-79.06145527-26.117517-20.81939262 17.61066876-68.42789418 25.33399136a92.94104925 92.94104925 0 0 0-8.50684824-14.32732361z m14.92429592 49.47403814h83.38950073V878.32414981h-68.87562381v8.61878189h-14.51387692z m68.87562213 40.40752993v-26.67717696h-54.36174521v26.67717696zM1399.99771397 888.13687463l39.51207065 0.78352563 67.71899154-1.97746856q-3.3579665 7.90987593-6.49206902 15.11084757l-61.30154385 1.00739128-43.87742841-1.00739128q-37.3107381-0.97007894-52.57082999-22.3864422a287.88965593 287.88965593 0 0 0-22.94610381 25.11012739l-8.43222689-16.67790048q14.92429591-13.17069132 24.32660174-21.37905256v-68.65175984h-22.38644385v-14.3273236h36.90032076v84.76999868q14.21539159 18.76730105 49.54866113 19.62544797z m-67.15932989-172.67409648q16.08092818 21.37905257 27.8711216 39.66131498l-13.543798 9.58885918q-11.82750406-19.99855631-26.90104261-41.04181292z m47.08615226 69.8457011l14.32732361 5.11157106q-9.85003551 23.35652282-22.38644386 48.87706749l-14.51387694-6.30551399a368.33160914 368.33160914 0 0 0 22.72223986-47.68312456z m-9.99927816-43.13121348h63.16708041a174.9873627 174.9873627 0 0 0-13.91690629-21.60291653l12.53640837-7.64870129a223.15552591 223.15552591 0 0 1 15.89437487 22.38644218l-11.45439743 6.90248632h65.62958933v14.29001294h-37.94502107v94.3961685q0 23.72962946-23.91618277 25.11012738c-6.0070287 0.26117465-13.95421697 0.41041731-23.76694012 0.41041731a166.25665051 166.25665051 0 0 0-2.91023851-16.30479216c7.83525459 0.67159364 15.48395588 0.97007894 22.94610548 0.97007895 9.02919921 0 13.54379797-5.07426042 13.54379797-15.29740256v-89.32190809h-28.84120218v36.71376746q0 61.00305687-35.51982285 88.27720614a119.61822618 119.61822618 0 0 0-10.22314213-12.16330003q31.60219471-25.14743805 31.60219637-75.92735279v-36.90032078h-36.67645679z m101.8210058 49.21286516l14.06614727-6.34282634q13.13338067 28.2442282 20.81939259 49.43672746l-14.32732359 6.08165168a423.99922928 423.99922928 0 0 0-20.40897361-49.1755528zM1742.88339808 836.72267694a112.3799439 112.3799439 0 0 0 4.73846442 15.52126821q-16.67790048 16.45403482-33.57966494 35.29595719l-9.40230586-11.19322109a24.43853376 24.43853376 0 0 0 6.26820335-15.89437485v-65.51765564h-18.84192236v-14.14077029h33.35580096v74.62147617q10.03658882-10.26045281 17.46142443-18.6926797z m-28.43078154-117.71537896q13.54379797 16.0436175 24.92357239 31.6021947l-12.94682565 9.40230587q-11.1932211-17.05100714-23.76694013-32.758827z m78.35254932 175.36046935a175.36046934 175.36046934 0 0 0 39.06434433-38.84047869q-8.28298425-33.35579929-10.40969713-91.22475532h-51.86192568v30.7813601h40.40752993q-0.63428297 40.63139392-1.38049794 59.69718192-1.00738962 24.14004844-22.57299717 24.14004678h-15.67050919q-1.15663227-6.492069-3.35796649-15.33471321a163.23447997 163.23447997 0 0 0 16.67790048 1.0073896q10.03658882 0 10.59624877-12.16330004 1.19394293-20.18510963 1.19394294-43.95204976h-25.89365133q-0.44772964 67.15932823-28.46809388 99.84353558-5.48467773-5.67123273-11.97674672-11.19322111 25.70709799-29.02775383 25.70709802-89.09804411v-58.01819701h65.92807461c-0.37310666-11.1932211-0.67159364-22.94610382-0.78352562-35.51982286h15.48395755q0 18.87923302 0.22386399 35.51982286h49.80983579v14.14076859h-49.43672915a508.43343028 508.43343028 0 0 0 6.86517732 74.13643753 253.71302035 253.71302035 0 0 0 22.57299549-50.81722539l14.51387692 6.86517566a299.79178297 299.79178297 0 0 1-32.57227365 63.98791673q6.26820335 20.59552693 15.52126654 27.46070258c4.29073478 2.72368352 6.97710764 1.23125361 8.0218096-4.51459877a275.24131723 275.24131723 0 0 0 2.9475475-27.46070426c5.37274574 2.20133422 10.14852081 3.99224947 14.3273236 5.29812608q-1.56705125 16.45403482-3.32065583 26.86373027-3.95493882 18.65536903-15.70781985 18.65536906-20.40897361 0-32.38572203-32.19916703a210.46987488 210.46987488 0 0 1-33.35579927 33.35580097 140.17644415 140.17644415 0 0 0-10.78280378-11.56632941z m52.98124896-169.72654733l9.0291992-9.40230751q12.34985505 9.25306319 24.32660009 19.812003l-9.99927649 10.7828038a291.91921606 291.91921606 0 0 0-23.43114414-21.34174361zM1912.64725771 808.66500206A324.19300439 324.19300439 0 0 0 1955.8530925 714.15690155l15.29740255 4.32804545a460.8622394 460.8622394 0 0 1-18.65536904 48.50396084v140.69879346h-14.47656628v-111.93221426a269.38353121 269.38353121 0 0 1-19.02847567 28.91582186c-2.1267129-5.41005638-4.2534241-10.78280377-6.34282635-16.00630684z m56.71232211-68.0920982h64.06253806q-5.85778603-10.07389949-12.27523373-19.99855462l13.13338069-6.86517566c4.73846444 7.05172896 9.36499519 14.51387693 13.95421524 22.3864422l-8.73071219 4.47728808h67.79361119v13.76766364h-138.04973127z m10.78280378 32.01261369h115.66328907v13.319934h-115.66328907z m0 31.56488574h115.66328907v13.35724295h-115.66328907z m2.16402186 31.78874803h111.63372897v71.82317131h-15.26009189v-11.7901934h-81.4120305v11.7901934h-15.1108492z m96.52288143 13.35724465h-81.56127485v33.35579929h81.4120305zM2134.49690703 893.43499903q72.3455223-13.54379797 93.27684688-42.98197082H2137.63100952v-14.51387689h97.30640536q6.67862233-20.37166294 6.08165001-71.22619901h16.49134715q0 50.4068081-5.48467939 71.22619901h74.36030154v14.51387689h-79.88228991c-1.04470028 2.08940055-2.27595555 4.32804545-3.73107481 6.67862236q41.97458119 17.68529009 82.08362581 36.48990178l-8.65609256 14.92429593Q2274.56141918 887.16679571 2233.51960796 868.69797998q-26.67717865 26.11751699-89.54577209 40.2209766a138.04973126 138.04973126 0 0 0-9.47692884-15.48395755z m6.86517731-151.25773326h89.84425739a239.49762873 239.49762873 0 0 0-13.13338065-20.6328376l14.3273236-8.0218096q6.492069 8.61878022 15.70782153 22.75955051l-10.82011445 5.89509669h83.98647134v35.10940556h-15.70781984v-20.59552864H2157.03259355v20.59552864h-15.67050921z m24.14004675 52.94393832q22.3864422 10.26045281 42.34768782 21.41636321l-8.43222688 13.5064873a467.42892971 467.42892971 0 0 0-41.37760887-22.38644217z m17.64797945-29.84859016q22.79686115 10.9693571 41.37760887 22.16257821l-8.80533522 13.35724465q-18.24495173-11.82750406-40.22097493-23.9534951zM2354.51833208 868.92184398c9.40230585-2.57444086 19.28965202-5.29812441 29.62472617-8.24567359V803.70267364h-25.89365301v-14.10345961h25.89365301V744.00549169H2356.6450433v-14.1407686h70.62922838V744.00549169h-27.87112158v45.51910099h25.11012573v14.17808096h-25.11012573v52.60814062c9.29037386-2.83561552 18.91654369-5.74585406 28.84120055-8.84264419 0.26117465 4.96232842 0.7089043 9.88734617 1.38049626 14.73774091q-33.57966495 10.3723848-69.65914777 21.97602486z m119.87940087-117.93924297h15.29740421v32.98269263a200.91832639 200.91832639 0 0 1-4.32804711 44.3251564h13.05875933v49.43672915q0 10.40969546 11.41708508 10.40969544h9.40230585q11.75288273 0 12.94682734-10.59625044 1.19394293-8.99188854 1.97746855-25.70709802c4.43997745 1.8282259 9.77541418 3.73107314 16.08092817 6.08165q-1.56705125 17.31218178-3.13410248 25.89365305-2.94754751 18.05839675-25.70709802 18.05839673h-14.5138769q-23.39383347 0-23.35652282-22.16257821v-43.46700945a93.8738175 93.8738175 0 0 1-10.59624879 24.25197878q-16.67790048 26.86373196-55.14527252 46.67573326a108.20114113 108.20114113 0 0 0-10.59624879-12.94682566q38.28081703-18.46881572 53.16780229-42.75810514 14.14077028-22.01333555 14.14077027-66.33849361z m-41.04181123-28.05767491h100.25395286v117.71537898h-15.29740257v-103.20150204h-69.80839041v105.96249622h-15.29740254zM2642.63185197 847.91589804l12.16330173 12.57371903a735.35734167 735.35734167 0 0 1-67.90554484 43.95204974q-4.29073478-6.26820335-10.37238484-13.50648732a457.01923425 457.01923425 0 0 0 66.11462795-43.01928145zM2576.77840037 822.99232564h50.74260405v-54.13788121h-42.79541746v-14.92429592h42.79541746v-37.68384472h16.0809282v37.68384472h59.43600562v-37.87039972h16.11823883v37.87039972h42.94466015v14.92429592h-42.94466015v54.13788121h50.81722539v14.92429591H2576.77840037z m66.71159857 0h59.43600731v-54.13788121h-59.32407363z m46.89959894 38.46737036l9.99927815-12.38716402q33.57966495 20.03586695 64.95799567 41.41491953l-11.37977606 14.32732362q-30.8932921-23.31921214-63.46556577-43.35507913zM2853.81063118 814.14967977v74.62147784c0 11.79019339-5.07426042 17.72260078-15.29740256 17.87184341h-16.08092818c-0.52235098-3.43258782-1.23125361-7.46214796-2.16402354-11.79019337 5.63392204 0.26117465 10.59625044 0.41041731 14.92429589 0.41041729 5.07426042 0 7.46214796-2.76099418 7.46214796-8.24567189v-13.35724468h-22.38644385a80.66581554 80.66581554 0 0 1-13.91690462 34.54974392c-2.61175154-3.02217051-5.70854338-6.41744769-9.25306321-10.22314215q14.55118758-18.43150506 14.32732361-55.70493247v-28.1322979z m-55.10796017-81.59858382h89.06073176c-2.49981953-4.17880279-5.03694975-8.50684822-7.64870128-12.94682566l12.34985504-6.26820504a163.60758662 163.60758662 0 0 1 11.56632942 19.2150307h85.36696928v11.1932211h-152.26512453v11.97674672h128.72204839v9.81272481h-142.04198071V744.00549169h-25.11012737z m22.75955051 132.22925588h21.37905255v-16.08092818h-20.59552695a147.22817313 147.22817313 0 0 1-0.7835256 16.08092818z m21.37905255-41.04181122h-20.40897363v16.08092818h20.40897363z m-18.65536903-48.09354186h139.91526949v32.38572032h-12.94682734v-3.73107313h-114.02161649v3.73107313h-12.94682566z m126.85651015 9.43961652h-113.90968449v9.81272483h114.02161649z m-65.9280746 45.70565431h10.59625045v18.43150507a87.3071272 87.3071272 0 0 1-1.56705126 17.08831778q12.31254438 11.75288273 21.37905256 22.38644386l-8.65609089 8.05911858a243.9749185 243.9749185 0 0 0-15.89437485-19.02847568 73.05442493 73.05442493 0 0 1-25.66978735 31.00522241 95.25431542 95.25431542 0 0 0-6.492069-10.40969548 60.59263955 60.59263955 0 0 0 21.19249924-22.38644217 62.98052545 62.98052545 0 0 0 5.1115711-28.0576766z m-9.62616987 41.04181289h-10.59625045v-57.08543042h51.0037804v57.08543042h-10.59625047v-47.4592589h-29.84859012z m94.76927517-57.49584769v73.80063985c0 3.13410252 1.49242992 4.70115377 4.51459876 4.70115378s4.51459877-1.75360459 4.88770708-5.29812607q1.00738962-8.84264419 1.56705125-18.24495005c3.73107314 1.3058766 7.46214796 2.76099418 11.19322108 4.32804542-0.89545763 8.2083629-1.8282259 14.92429591-2.72368352 19.99855464a11.1932211 11.1932211 0 0 1-12.57371901 10.18583149H2972.27222511q-12.98413634 0-12.98413632-14.29001126v-27.08759595l-9.81272485 5.89509671a229.75952691 229.75952691 0 0 0-11.1932211-21.00594593q0 41.0418129-18.4688157 62.01044648a92.67987458 92.67987458 0 0 0-8.61878023-9.81272483Q2927.49933907 882.05522462 2927.49933907 850.07992157v-35.9302418z m-11.19322111 9.81272314h-20.96863526v20.2224203l8.24567358-4.70115211c4.96232842 7.46214796 9.21575252 14.66311958 12.72296168 21.19249929z" fill="#08579E" p-id="930"></path></svg>